<svg width="24" height="24" viewBox="0 0 24 24" fill="none" xmlns="http://www.w3.org/2000/svg">
<path fill-rule="evenodd" clip-rule="evenodd" d="M12.0279 2.02898C9.83476 2.02898 8.05688 3.80687 8.05688 6C8.05688 8.19312 9.83476 9.97101 12.0279 9.97101C14.221 9.97101 15.9989 8.19312 15.9989 6C15.9989 3.80687 14.221 2.02898 12.0279 2.02898ZM6.02789 6C6.02789 2.68629 8.71418 0 12.0279 0C15.3416 0 18.0279 2.68629 18.0279 6C18.0279 9.3137 15.3416 12 12.0279 12C8.71418 12 6.02789 9.3137 6.02789 6Z" fill="#B4BFC0"/>
<path fill-rule="evenodd" clip-rule="evenodd" d="M6.5695 14.8962C5.55598 16.2063 5.14948 17.9323 5.04004 19.5191C5.03953 19.5265 5.03895 19.5338 5.03828 19.5412C4.92134 20.8275 5.9826 21.9711 7.3323 21.9711H16.7236C18.0733 21.9711 19.1346 20.8275 19.0176 19.5412L19.0172 19.5365L19.0172 19.5365C18.8791 17.935 18.4716 16.2058 17.4628 14.8938C16.4964 13.6369 14.8826 12.6377 12.0279 12.6377C9.17198 12.6377 7.54282 13.638 6.5695 14.8962ZM4.96466 13.6547C6.36815 11.8404 8.62305 10.6088 12.0279 10.6088C15.4342 10.6088 17.6754 11.8415 19.0713 13.6571C20.4243 15.4168 20.8865 17.5996 21.0385 19.3601C21.2677 21.8986 19.1991 24.0001 16.7236 24.0001H7.3323C4.85968 24.0001 2.79303 21.9036 3.01659 19.369C3.14014 17.5955 3.60407 15.4135 4.96466 13.6547Z" fill="#B4BFC0"/>
</svg>
