<?xml version="1.0" encoding="utf-8"?>
<!-- Generator: Adobe Illustrator 21.0.0, SVG Export Plug-In . SVG Version: 6.00 Build 0)  -->
<svg version="1.1" id="Layer_1" xmlns="http://www.w3.org/2000/svg" xmlns:xlink="http://www.w3.org/1999/xlink" x="0px" y="0px"
	 viewBox="0 0 265.1 241.1" style="enable-background:new 0 0 265.1 241.1;" xml:space="preserve">
<style type="text/css">
	.st0{fill:#FEFEFE;}
	.st1{fill:#657C24;}
	.st2{fill:#637A23;}
	.st3{fill:#AAB982;}
	.st4{fill:#FCFCFB;}
	.st5{fill:#FAFBF9;}
	.st6{fill:#102020;}
	.st7{fill:#647C24;}
	.st8{fill:#647B24;}
	.st9{fill:#647922;}
	.st10{fill:#83911D;}
	.st11{fill:#77871E;}
	.st12{fill:#677B21;}
	.st13{fill:#7D8C1E;}
	.st14{fill:#AAB981;}
	.st15{fill:#6E8120;}
	.st16{fill:#7F8E1E;}
	.st17{fill:#ABB982;}
	.st18{fill:#ABBA82;}
	.st19{fill:#D9DFC6;}
	.st20{fill:#D2D9B6;}
	.st21{fill:#637923;}
	.st22{fill:#637B24;}
	.st23{fill:#FBFCFA;}
	.st24{fill:#6C7F20;}
	.st25{fill:#E5E9D5;}
	.st26{fill:#FAFBF8;}
	.st27{fill:#D3DAC2;}
	.st28{fill:#D9DEC9;}
	.st29{fill:#F9FAF7;}
	.st30{fill:#F6F8F3;}
	.st31{fill:#F5F7F1;}
	.st32{fill:#EEF1E6;}
</style>
<g>
	<path class="st0" d="M83,0c60.2,0,120.4,0,180.6,0c1.2,0,1.5,0.2,1.5,1.4c0,37.8,0,75.5,0,113.3c-0.8,0.8-1.9,0.7-2.9,1
		c-4.4,1.5-8.7,3.3-12.6,5.7c-0.3,0.2-0.6,0.4-0.9,0.5c-1.1,0.5-1.3,0.3-1.3-1.1c1.6-3.1,3.4-6.1,4.8-9.3c1.8-4.2,3.4-8.6,4.2-13.1
		c0.3-1.8,0.2-3.5,0.2-5.3c-0.5-0.9-0.5-1.9-0.3-2.9c0.4-1.7,0.3-3.4,0.3-5.1c0-0.8-0.4-1-1-0.6c-0.8,0.5-1.5,1.1-2.3,1.6
		c-0.8,0.5-1.4,0.5-1.5-0.6c0.1-1.8,1.1-3.2,1.7-4.8c1.6-4.8,2.6-9.6,3.1-14.6c0.2-1.5,0-2.9-0.2-4.3c0-1.7,0-3.3,0.3-5
		c0.2-1.1,0.1-2.2-0.1-3.3c-0.1-0.5,0-1.1-0.6-1.3c-0.6-0.1-0.9,0.4-1.2,0.7c-3.3,3-5.9,6.5-8.1,10.3c-3.1,5.3-5.6,10.9-7.4,16.7
		c-1.7,5.4-2.4,10.9-1.8,16.6c0,2.5-0.5,5,0,7.5c1.5,3-0.6,5.4-1.4,8c-0.3,0.9-0.7,1.7-1,2.6c-0.3,0.8-0.7,0.9-1.3,0.2
		c-0.3-1.3-0.5-2.5-0.5-3.8c0.6-3.9,0.2-7.8-0.6-11.7c-1.2-5.5-3-10.8-5.4-15.9c-0.7-1.5-1.3-3-2.3-4.3c-1-1.4-0.5-3.2-1.3-4.6
		c-0.6-1.9-1.7-3.7-2.5-5.5c-0.3-1.2,0.2-1.4,1.3-1.4c1.6,0.1,1.7,0,1.2-1.6c-0.4-1.4-1.4-2.8-0.4-4.4c1.3-2.6,1.8-5.3,2-8.2
		c0.4-2.3,0.1-4.7,0.2-7c0.1-6.3-0.2-12.5-1.2-18.7c-1.1-6.7-3.3-13-6.5-19c-0.4-0.8-1-1.6-1.6-2.3c-1-1.1-1.5-1.1-1.9,0.3
		c-0.5,2-1,4-1.2,6c-0.5,5.4-0.3,10.9-0.4,16.3c0,1.3-0.2,2.7,0.2,4c0.1,0.2,0.1,0.4,0.1,0.6c0,1.9,0.1,3.7,0.6,5.5
		c0.6,3.7,1.8,7.2,2.5,10.8c-0.1,0.7,0.5,1.4-0.3,2c-0.4,0.1-0.7-0.1-0.9-0.3c-1.2-1.7-3.1-3-3.6-5.2c-0.3-1.7-1.1-3.2-1.4-4.8
		c0-0.4,0-0.9,0.4-1c1.4-0.4,1-1.3,1-2.2c-0.4-4.7-2.5-8.8-4.7-12.9c-3.2-5.9-7.4-11.2-12-16.1c-2.7-2.9-5.7-5.6-9.3-7.4
		c-0.3-0.2-0.7-0.4-1-0.5c-1-0.3-1.4-0.1-1.1,1c0.5,2,0.8,4,1.5,5.9c0.2,0.7,0.5,1.5-0.6,1.7c-1.2,0.1-1,0.8-0.9,1.7
		c1.3,7.2,4.7,13.5,8.7,19.6c0.3,0.5,0.9,1,0.6,1.8c-0.2,0.2-0.5,0.3-0.7,0.3c-1.7,0.1-1.7,0.1-1.2,1.8c0.6,2,1.6,3.8,2.4,5.6
		c0.4,0.9,0.4,1.5-0.8,1.6c-0.3,0-0.7,0-1-0.1c-1-0.2-1.1,0.2-0.9,1.1c0.7,2.4,1.7,4.7,3,6.8c4.9,8.1,11,15.1,18.6,20.8
		c0.7,0.5,1.4,1,2,1.5c0.5,0.6,0.9,1.2,0.9,2.1c0,0.2-0.1,0.4-0.1,0.5c-0.7,3.2-0.5,6.3,0.1,9.5c0.4,2.8,1.2,5.5,1.9,8.2
		c0.1,0.2,0.1,0.3,0.2,0.5c0.3,1,0.3,2.2,0.9,3.1c1.3,3.2,2.3,6.6,4,9.6c0.3,0.5,0.5,1,0.2,1.6c-2.9,4.3-4.3,9.1-5.6,14
		c-1.7,6.6-2.5,13.4-2.1,20.3c0,2.2,0.1,4.4,0,6.7c-0.1,3.2,0.3,6.3,1,9.4c0.1,1.3-0.3,2.3-1.4,3.2c-1.4,1.2-2.8,2.3-4.1,3.7
		c-0.3,0.3-0.7,0.8-1.3,0.6c-0.5-0.3-0.4-0.8-0.4-1.3c1-2.6,1.5-5.4,2.3-8c0.8-1.8,0.8-3.7,0.3-5.6c-0.1-0.1-0.2-0.3-0.3-0.4
		c-0.6-1.5,0-2.9,0.3-4.4c0.2-0.9,0.4-1.8,0.3-2.8c-0.1-1.1-0.5-1.4-1.5-0.8c-1.2,0.8-2.4,1.4-3.4,2.4
		c-10.3,9.2-17.9,20.2-22.1,33.4c-1.1,3.4-1.9,6.9-1.1,10.6c0.3,1.5-0.2,3-0.4,4.5c-0.1,0.3-0.2,0.5-0.4,0.7
		c-1.4,0.5-2.8,0.3-4.2,0.5c-1.3,0.2-2.6,0.3-3.9,0.6c-0.7,0.2-1.4,0.3-1.9-0.5c-0.1-1,0.6-1.5,1.1-2.1c2.2-2.6,4.4-5.1,6-8.1
		c0.3-0.6,0.6-1.3,0.8-2c0.4-1.4,0.3-1.5-1.2-1.3c-0.3,0-0.7,0.1-1,0.1c-0.7-0.1-1.6,0.5-2-0.2c-0.4-0.8,0.5-1.4,1-2
		c1.3-1.8,2.5-3.6,3.2-5.8c0.3-1,0.1-1.4-1-1.2c-3.5,0.6-6.9,1.8-10.1,3.3c-8.7,4.1-16.3,9.6-23.1,16.4c-2.8,2.8-5.2,5.9-7.1,9.4
		c-0.3,0.5-0.6,1-1.2,1.1c-0.7,0.1-1.3-0.2-1.9-0.4c-2.1-0.7-4.2-0.3-6.3,0.2c-1,0.1-1.6-0.4-2-1.2c-3.1-6.2-7.9-10.9-13.1-15.3
		c-5.2-4.3-10.8-8-16.9-10.9c-3.1-1.5-6.4-2.5-9.7-3.5c-0.3-0.1-0.7-0.1-1-0.2c-0.9-0.1-1.4,0.2-0.9,1.2c0.7,1.6,1.5,3.2,2.6,4.6
		c0.5,0.7,1,1.3,1.3,2.1c0.4,0.9,0.1,1.3-0.8,1.2c-0.7-0.1-1.3-0.2-2-0.2c-0.4,0-0.7,0-1.1,0c-1,0.5,0,1,0.1,1.5
		c1.7,3.9,4.4,7.1,7.1,10.3c0.5,0.6,1.5,1,1.2,2.2c-0.6,0.5-1.3,0.3-1.9,0.1c-2.7-0.8-5.5-0.6-8.2-1.3c-0.2-0.1-0.3-0.2-0.4-0.4
		c-0.4-1.9-0.7-3.8-0.3-5.9c0.6-3.3-0.4-6.5-1.4-9.6c-2.4-7.5-6.3-14.3-10.8-20.7c-3.8-5.3-8.1-10.1-13.5-13.9
		c-0.5-0.3-0.9-0.6-1.4-0.9c-0.8-0.5-1.3-0.2-1.3,0.7c-0.1,1,0,2,0.2,3c0.4,1.7,0.8,3.2,0,5.1c-0.7,1.7-0.5,3.8,0.3,5.7
		c0.6,2.6,1.5,5.1,2.3,7.6c0,1.3-0.7,1.4-1.5,0.7c-1.5-1.3-3-2.5-4.5-3.9c-0.8-0.8-1.2-1.7-1.1-2.8c1.3-5.1,0.9-10.3,0.9-15.4
		c0.6-10.6-1.4-20.8-5.2-30.7c-0.6-1.6-1.4-3-2.4-4.3c-0.3-0.6,0-1.2,0.3-1.7c3.2-6.2,5.2-12.8,6.6-19.6c0.7-3.5,1.2-6.9,0.6-10.4
		c-0.2-1.2-0.1-2.4,0.9-3.4c2-1.8,4.1-3.4,6-5.2c5.8-5.4,10.6-11.5,14.3-18.5c0.7-1.4,1.3-2.8,1.6-4.4c0.3-1.4,0.2-1.6-1.3-1.3
		c-0.4,0.1-0.9,0.2-1.3,0.1c-0.7-0.4-0.4-1-0.1-1.4c1.4-2.1,2-4.5,3-6.7c1.3-1.7-0.6-1.5-1.2-2c-0.3-0.7,0.1-1.2,0.5-1.7
		c2.7-4.1,5.1-8.3,6.9-12.9c0.8-2,1.4-4.1,1.9-6.2c0.4-1.1,1.1-2.3-0.9-2.5c-0.5-0.1-0.6-0.7-0.5-1.1C81.6,5.6,81.8,2.7,83,0z"/>
	<path class="st0" d="M265,125.7c0,38,0,76,0,114c0,1.1-0.2,1.4-1.4,1.4c-87.4,0-174.9,0-262.3,0c-1.1,0-1.4-0.2-1.4-1.4
		c0-38.3,0-76.7,0-115c0.8-0.1,0.9,0.6,1.1,1c2.8,6,7.4,10.5,12.1,15c2,1.9,4.4,3.1,6,5.4c0.9,2.5,2.5,4.5,4.1,6.5
		c0.4,0.5,1.3,1,0.9,1.8c-0.3,0.6-1.2,0.4-1.8,0.4c-0.5,0-1,0-1.5-0.1c-0.5-0.1-1.1-0.4-1.4,0c-0.5,0.6,0,1.2,0.3,1.7
		c1.6,3.1,3.8,5.7,6.2,8.2c2.9,3.1,6,5.9,9.4,8.3c0.6,0.4,1.4,0.8,1.4,1.7c-0.7,0.8-1.7,0.5-2.5,0.5c-3.7-0.2-7.2,0.7-10.8,1.5
		c-0.6,0.1-1.3,0.2-1.5,0.9c-0.1,0.7,0.6,1,1.1,1.3c1.9,1.4,3.9,2.6,6.2,3.6c0.5,0.2,1.2,0.4,1.1,1c-0.1,0.7-0.8,0.5-1.3,0.7
		c-1,0.4-2.2,0.1-3.2,0.7c-1,0.3-1.9,0.5-2.9,0.9c-0.4,0.2-1.1,0.1-1.2,0.7c0,0.5,0.5,0.8,0.9,1.1c1.9,1.4,3.9,2.7,6.1,3.7
		c5.4,2.4,11.1,4.3,16.9,5.3c1.8,0.3,3.6,0.4,5.1,1.6c0.1,0.9-0.7,1.1-1.2,1.4c-1.4,1-1.4,1.3,0.2,2.1c1.8,0.9,3.8,1.4,5.8,2
		c0.8,0.2,1.9,0.1,1.7,1.5c-2,1.3-4.4,1.6-6.4,2.8c-0.8,0.5-2.3,0.7-2.2,1.8c0.1,1,1.5,1.2,2.4,1.6c3.7,1.4,7.5,2.1,11.4,2.6
		c3.2,0.4,6.5,0.6,9.7,0.8c2.1,1.2,4.3,2.1,6.8,2.3c0.9,0.1,2.1,0.1,2.6,1.3c-0.3,0.8-1,1-1.7,1.3c-2.1,0.9-4.1,1.9-5.9,3.3
		c-1.1,0.9-1,1.2,0.3,1.8c2.1,1,4.4,1.3,6.6,1.6c6.2,0.7,12.5,0.7,18.7-0.3c2.4-0.4,4.8-0.8,7.2-1.2c0.4,0,0.9-0.1,1.3-0.1
		c0.8-0.1,2-0.3,1,1.2c-0.3,0.5-0.1,0.9,0.3,1.3c0.5,0.5,1.2,0.8,1.7,1.4c1,1.1,1.7,0.8,2.6-0.2c2.4-2.6,4.7-5.3,7.2-7.9
		c0.2-0.2,0.3-0.3,0.5-0.5c0.6-0.5,1.3-0.9,2-1.3c1.2-0.6,2.6-0.1,3.1,1c0.4,0.8-0.3,1.2-0.8,1.6c-2.8,2.4-5.7,4.6-8.5,6.9
		c-2.5,2-4.8,4.1-7.4,6c-0.9,0.7-1,1.3,0,2.1c2.6,2.2,2.6,2.2,4.9-0.3c4.3-4.6,8.5-9.3,12.7-14.1c0.8-0.9,1.5-1.2,2.6-0.8
		c1.2,0.4,2.4,0.5,3.6,0.2c1.2-0.2,1.9,0.2,2.6,1.1c3.9,4.7,7.7,9.3,11.4,14.1c0.7,0.8,1.4,1.6,2.1,2.4c0.5,0.7,1.1,0.7,1.6,0
		c0.2-0.3,0.4-0.5,0.7-0.8c1.5-1.6,2.4-2.1-0.3-3.9c-0.6-0.4-1-1-1.1-1.8c0-0.5,0.1-1,0.2-1.4c0.3-1.2,1.4-2,2.1-2.9
		c0.6-0.7,0.8-1.3,0-2c-0.4-0.3-1-0.8-0.6-1.4c0.3-0.5,1-0.4,1.5-0.3c0.4,0.1,0.9,0.1,1.3,0.1c3,0.7,5.9,1.4,8.9,1.8
		c7.3,0.9,14.6,1.3,21.9,0.1c1.4-0.2,2.8-0.7,4.2-1.2c0.5-0.2,1.2-0.3,1.3-1c0.1-0.7-0.5-0.9-1-1.2c-1.7-1.1-3.4-2.3-5.4-3
		c-0.6-0.2-1.2-0.5-1.7-1c-0.7-1-0.1-1.5,0.9-1.5c2.8-0.1,5.3-1.1,7.8-2.1c1.6-0.6,3.4-0.5,5.1-0.6c1.8-0.1,3.5-0.3,5.2-0.5
		c4-0.7,8.1-1.2,11.9-2.9c0.3-0.1,0.6-0.2,0.9-0.4c0.5-0.3,1.2-0.5,1.2-1.2c0-0.6-0.7-0.8-1.2-1c-2.2-1.2-4.5-2.1-6.8-3
		c-0.9-0.8-0.6-1.3,0.4-1.6c1.9-0.6,3.9-0.9,5.7-1.8c0.5-0.2,1-0.4,1.5-0.8c0.7-0.5,0.7-1-0.1-1.5c-0.7-0.5-1.7-0.7-1.9-1.7
		c0-0.2,0.1-0.3,0.3-0.4c1.2-0.3,2.6-0.2,3.8-0.7c6.6-1.4,13-3.1,19.1-6.1c1.8-0.9,3.6-1.9,5.2-3.3c0.4-0.3,0.9-0.6,0.8-1.2
		c-0.1-0.5-0.7-0.7-1.2-0.8c-1.9-0.4-3.9-1.1-5.8-1.3c-0.5-0.1-1,0-1.4-0.4c-0.3-1.1,0.7-1.3,1.3-1.6c2.2-1.1,4.4-2.3,6.4-3.8
		c0.3-0.3,0.8-0.5,0.8-1c-0.1-0.6-0.6-0.8-1.1-0.9c-2.4-0.4-4.8-1.5-7.3-1.3c-1.5,0.1-3.1-0.4-4.6-0.4c-0.6,0-1.1-0.1-1.2-0.8
		c0.1-1,0.9-1.3,1.6-1.8c4.8-3.8,9.3-8,13-13c0.8-1,1.4-2.1,1.9-3.3c0.5-1.4,0.4-1.5-1-1.4c-1.2,0-2.4,0.5-3.6,0.1
		c-0.4-0.8,0.3-1.2,0.7-1.7c1.8-2.2,3.5-4.4,4.4-7.1c1.5-1.8,3.5-3,5.3-4.5c4.2-3.7,7.9-7.8,11.1-12.3c0.7-0.9,1.1-2.1,1.6-3.1
		C264.1,126.3,264.2,125.5,265,125.7z"/>
	<path class="st0" d="M0,114C0,76.5,0,38.9,0,1.4C0,0.2,0.2,0,1.4,0c26.7,0,53.3,0,80,0c0.2,0.7-0.3,0.9-0.8,1.1
		c-5,2.7-8.8,6.6-12.6,10.7c-4.1,4.4-7.4,9.4-10.1,14.7c-1.8,3.4-3.4,7-3.8,10.9c-0.1,1.2-0.3,2.2,1,2.8c0.3,0.1,0.3,0.5,0.3,0.7
		c-0.2,1.6-0.9,3.1-1.3,4.6c-0.6,1.9-2.1,3.1-3.4,4.3c-1.1,1-1.2-0.1-1.3-0.9c0.1-1.4,0.7-2.7,1-4c1.1-4.2,1.6-8.5,2.1-12.8
		c0.2-0.7,0.2-1.4,0.2-2.1c-0.1-5.9,0.2-11.8-0.4-17.6C52,10.4,51.6,8.2,51,6.1c-0.3-1-0.9-1.2-1.6-0.4c-0.8,0.8-1.3,1.8-1.9,2.7
		c-3.6,6.4-5.4,13.3-6.6,20.5c-1.2,7.5-0.9,15-1,22.6c0,0.4,0.1,0.8,0.2,1.1c0.2,3.1,1,6.1,2,8.9c-0.2,1.6-1.2,2.9-1.6,4.5
		c-0.4,1.6-0.3,1.8,1.3,1.8c0.8,0,1.5-0.1,1.4,1.1c-0.4,1.3-1.1,2.4-1.7,3.5c-0.9,1.6-1.3,3.2-1.2,5c0.1,0.9-0.2,1.7-0.6,2.5
		c-2.6,4.9-4.6,10-6.1,15.4c-1.3,4.7-2.2,9.6-1.4,14.6c-0.1,1.6,0,3.2-0.5,4.7c-0.5,0.5-1,0.3-1.2-0.3c-1-2.9-2.4-5.6-3.3-8.4
		c-0.1-0.2,0-0.4,0.1-0.7c1-1.8,0.9-3.7,0.9-5.7c0-1.2-0.2-2.4-0.1-3.7c0.1-3.1,0-6.2,0-9.3c0-1.3-0.2-2.6-0.7-3.9
		c-0.1-0.3-0.2-0.7-0.2-1.1c0-0.4,0-0.9,0.3-1.3c1-0.2,1,0.6,1.2,1.2c0.5,1,0.7,2.4,1.9,2.4c1.1,0,1.7-1.3,2.2-2.3
		c2.1-4.3,3.1-8.8,3.7-13.5c0.1-0.5,0.1-1,0.2-1.5c0.4-1.5,0.5-3.1,0.5-4.6c0-5,0.2-10.1-0.1-15.1c-0.4-5.9-0.9-11.7-3.1-17.3
		c-0.3-0.7-0.5-2-1.2-2c-1-0.1-1.2,1.1-1.6,1.9c-2.2,4.5-3.2,9.4-4,14.4c-0.7,4.4-0.5,8.7-0.7,13.1c-0.2,2.9-0.5,5.8-0.2,8.6
		c0.2,2.4-0.1,4.9,0.8,7.2c0.2,2.4,1.1,4.8,0.9,7.2c-1.1,0.5-0.9-0.7-1.4-1.1c-1.6-4.3-3.1-8.6-5.3-12.7c-2.7-5.1-5.9-9.9-10.1-13.9
		c-0.4-0.4-0.9-1.1-1.5-0.8c-0.6,0.2-0.5,1-0.7,1.6c-0.1,0.3-0.1,0.6-0.1,0.8c0.5,4-0.1,8.1,0,12.1c0,0.4,0.1,0.9,0.2,1.3
		C9.5,73,11,78.4,12.9,83.7c0.2,0.4,0.3,0.8,0.4,1.3c-0.1,1-0.6,1-1.4,0.6c-0.6-0.4-1.1-0.9-1.7-1.3c-0.4-0.3-0.8-0.7-1.3-0.5
		c-0.6,0.2-0.4,0.8-0.4,1.3c0,1.5-0.1,3.1,0.3,4.6c0.2,0.9,0.3,1.7-0.2,2.6c-0.7,4.9,0.8,9.3,2.4,13.8c1.6,4.6,3.8,8.9,6.1,13.1
		c0.3,0.5,0.6,1.1,0.6,1.7c-0.6,1.1-1.3,0.4-1.8,0c-2.4-1.6-5.1-2.7-7.6-4C5.6,115.6,2.7,115.2,0,114z"/>
	<path class="st1" d="M19,146c-3-2.5-6.1-4.9-8.9-7.7c-4.1-4.1-7.6-8.5-10.1-13.7c0-0.6,0-1.1,0-1.7c1.4-1,2.6,0.1,3.8,0.3
		c2.8,1.1,5.7,2.1,8.4,3.5c5,2.6,9.6,5.9,13.9,9.5c3.1,2.6,5.9,5.5,8.5,8.6c1.6,1.9,2.7,4.1,3.8,6.3c1.1,3.2,0.4,4-2.9,3.3
		c-3.8-0.7-7.3-2.4-10.6-4.4C22.9,149,20.6,148,19,146z"/>
	<path class="st2" d="M265,125.7c-1.4,1.9-2.3,4.1-3.7,6c-3.9,5.1-8.4,9.6-13.5,13.5c-0.6,0.5-1.2,1-1.8,1.5c-1,1.5-2.6,2.2-4.1,3.1
		c-3.9,2.5-8.1,4.6-12.7,5.6c-3.3,0.7-3.7,0.3-3-3c1.1-2.1,2.2-4.2,3.7-6.1c5.9-8.2,13.9-13.9,22.6-18.8c2.5-1.4,5.2-2.2,7.8-3.3
		c1.5-0.6,2.9-1.3,4.6-0.7C265,124.4,265,125,265,125.7z"/>
	<path class="st3" d="M260.4,124.7c-1.2,1.2-3,1.2-4.5,1.9c-6.3,2.8-11.9,6.7-17.2,11.2c-3.1,2.7-5.9,5.6-8.4,8.9
		c-0.8-0.2-1.6,0-2.5,0c-1.5,0.1-2.1-0.4-1.8-2c0.5-2.3,1.6-4.3,3-6.1c1-1.3,1.7-3,3.4-3.7c0.9,0.6,1.6,0.5,2.5-0.1
		c4.4-3,7.9-6.9,10.6-11.4c0.5-0.9,0.7-2.2,2-2.4c0,0.3-0.2,0.6-0.1,0.8c0.3,0.4,0.6,0,0.8-0.1c3.4-2.3,7.2-4,11.1-5.5
		c1.8-0.7,3.6-1.2,5.6-1.4c0,0.7,0,1.3,0,2C264.1,119.7,262.1,122.2,260.4,124.7z"/>
	<path class="st3" d="M34.4,145.3c-1.5-1.4-2.6-3.1-4.1-4.5c-6.5-6.3-13.6-11.7-22-15.3c-1.4-0.6-3.2-0.6-4.4-1.8
		c0.5-0.3,0.2-0.6,0-0.9c-1.2-1.5-2.2-3.2-3.1-4.9c-0.4-0.7-0.5-1.5-0.8-2.3c0-0.6,0-1.1,0-1.7c3.7,0.2,6.9,1.8,10.1,3.3
		c2.2,1,4.4,2.1,6.3,3.5c0.2,0.2,0.6,0.6,1,0.1c1-0.8,1.1,0.3,1.4,0.7c1.5,2.3,3,4.6,4.8,6.8c1.7,1.9,3.5,3.7,5.6,5.2
		c1.1,0.9,2.2,1.1,3.4,0.3c3,2.7,5.1,6.1,6.3,9.9c0.4,1.3,0,1.8-1.4,1.9C36.4,145.9,35.4,145.6,34.4,145.3z"/>
	<path class="st3" d="M55,41c-2.8-1.8-1.5-4.3-0.9-6.4C58.5,21.5,66.6,11,77.4,2.6c1.2-1,2.9-1.4,4-2.5c0.6,0,1.1,0,1.7,0
		c-0.3,2.7-1,5.3-1.8,7.8c-0.3,0.9-0.6,1.5,0.8,1.2c1.1-0.2,1,0.6,0.9,1.3c0,0.6,0.1,1.4-0.6,1.8c-0.1-0.1-0.2-0.1-0.2-0.2
		c-0.4-0.5,0.3-1.4-0.4-1.6c-0.8-0.2-1.6,0.2-2.4,0.6c-2.2,1.2-4.1,2.9-5.9,4.5c-6.9,6.3-12.4,13.7-16.6,22.1
		c-0.4,0.8-0.6,1.5-0.8,2.3C55.9,40.3,55.9,41.1,55,41z"/>
	<path class="st4" d="M260.4,124.7c-0.2-0.2-0.4-0.4-0.2-0.7c1.8-2.1,3.2-4.5,4.4-7.1c0.1-0.1,0.3-0.2,0.4-0.3c0,2.3,0,4.7,0,7
		C263.5,124,261.9,124.4,260.4,124.7z"/>
	<path class="st5" d="M0,115.7c1.5,2.7,2.9,5.5,5.2,8.1c-0.6,0-0.9,0-1.2,0c-1.3-0.2-2.6-0.5-4-0.7C0,120.6,0,118.1,0,115.7z"/>
	<path class="st2" d="M151,232.8c0.4,1.4,1.9,1.8,2.8,2.7c0.6,0.6,0.7,1,0.1,1.6c-0.7,0.7-1.5,1.5-2.1,2.3c-0.8,1.2-1.4,1-2.2,0
		c-3.1-3.9-6.2-7.7-9.4-11.6c-1.4-1.8-2.8-3.5-4.3-5.3c-0.5-0.6-1-0.9-1.9-0.7c-1.3,0.3-2.7,0.3-4-0.2c-1-0.3-1.6-0.1-2.3,0.7
		c-4.7,5.3-9.5,10.5-14.1,15.7c-0.9,1-1.6,1.1-2.4,0.1c-0.3-0.3-0.6-0.6-1-0.9c-2.4-2-2.3-2,0-3.8c5.2-4.1,10.3-8.3,15.5-12.4
		c0.3-0.2,1.1-0.6,0.4-1.1c-0.6-0.4-0.9-1.7-2.1-1.1c-0.8,0.5-1.6,1-2.4,1.5c-3.8,2.6-8,3.9-12.5,4.4c-0.7,0.1-1.3,0.2-1.9,0.5
		c-7.1,1.4-14.2,2.3-21.4,2c-3.9-0.2-7.7-0.6-11.4-1.9c-0.5-0.2-0.9-0.3-1.4-0.6c-0.8-0.5-0.9-0.9-0.1-1.6c2.6-2.1,5.7-3.4,8.6-4.8
		c1.4-1.5,3.4-1.9,5.2-2.4c4.7-1.4,9.4-2.7,14.3-3.2c5.7-0.6,11.4-1.5,17.1-0.2c0.9,0.1,1.7,0.3,2.6,0.5c-0.1-0.3-0.4-0.3-0.6-0.4
		c-4.3-1.5-8.2-3.6-11.9-6.1c-1.5-1-3-2.1-4.4-3.2c-1-0.7-2.1-1.4-2.9-2.4c-2.2-1.7-4.3-3.5-6.2-5.5c-0.5-0.5-1-1.1-1.2-1.7
		c-2.5-2.6-4.8-5.5-6.9-8.5c-0.7-1.1-1.3-2.3-1.8-3.5c-0.2-0.7-0.5-1.4,0-2c0.4,0,0.9,0,1.3,0c8.4,1,15.3,5.2,22.1,9.8
		c5.6,3.8,10.7,8.2,15,13.5c0.3,0.4,0.6,0.8,0.8,1.3c1.2-1.3,2.5-2.5,4.4-2.6c2.9-1.2,5.8-0.8,8.6,0.4c1.1,0,1.8,0.7,2.5,1.4
		c0.8,0.8,1.3,0.6,2-0.2c5.2-6.1,11.4-11.1,18.2-15.4c4.1-2.6,8.4-4.9,13.1-6.4c1.4-0.5,2.9-0.2,4.2-0.8c0.1,0,0.1,0,0.2,0
		c0.9,0.1,2.1-0.9,2.7-0.1c0.7,0.9-0.2,2-0.7,2.9c-1.6,3.4-4.1,6.2-6.5,9.1c-0.4,0.5-0.7,1.1-1.3,1.5c-1.5,2.5-3.7,4.3-6,6.1
		c-0.4,0.3-0.9,0.7-1.3,1.1c-1.3,1.1-2.4,2.5-4,3.2c-3.7,3-7.7,5.3-11.9,7.4c-1,0.5-2.2,0.8-3.2,1.3c-0.6,0.2-1.2,0.2-1.7,0.6
		c0.9-0.2,1.7-0.2,2.6-0.3c0.9-0.4,1.8-0.6,2.7-0.6c5.8-0.1,11.6-0.1,17.4,1c4.6,0.9,9.2,1.8,13.6,3.5c1.3,0.5,2.5,1.1,3.6,2
		c2.6,1.1,5.1,2.3,7.4,4c0.6,0.4,1.4,0.8,1.4,1.5c-0.1,0.7-1,0.9-1.7,1.2c-3,1.3-6.2,1.6-9.4,1.8c-8.6,0.6-17.2-0.1-25.5-2.3
		c-0.3-0.1-0.5-0.1-0.8-0.1c-1.7-0.9-3.7-0.5-5.5-1.2c-3.1-1.3-6.4-2.3-9.1-4.3c-0.9-0.2-1.4,0.3-1.7,0.9c-0.3,0.6,0.4,1,0.8,1.3
		c3.1,2.6,6,5.5,9.1,8.2C149.5,231,150.3,231.8,151,232.8z"/>
	<path class="st6" d="M126.9,60c-4.8,3-9.2,5.8-13.6,8.5c-1.1,0.7-2.2,2.1-3.2,1.7c-0.9-0.3-1.5-2-2.1-3c-1.5-2.4-1.5-2.4,0.7-4
		c8.4-6.2,16.9-12.4,25.3-18.7c1.5-1.1,3-1.7,4.9-1.5c0.7,0.1,1.4,0.1,2.2,0c1-0.1,1.3,0.2,1.3,1.3c0,29.2,0.1,58.3,0.1,87.5
		c0,1.9-0.1,3.9-0.3,5.8c-0.1,1,0.2,1.2,1.2,1.2c2.9-0.2,5.9-0.3,8.8-0.6c1.4-0.1,1.7,0.3,1.6,1.6c-0.1,1.7-0.1,3.4,0,5.2
		c0,0.8-0.1,1.2-1.1,1.2c-12.1,0-24.1,0-36.2,0c-0.7,0-1.1-0.1-1.1-1c0.1-1.6-0.4-3.2,0.1-4.6c0.6-1.7,2.6-0.9,4-1.3
		c4.7-1.3,6.6-4.7,7.3-9.1c0.5-3.1,0.4-6.2,0.4-9.3c0-15.3-0.1-30.5-0.2-45.8C126.8,70.1,126.9,65.3,126.9,60z"/>
	<path class="st7" d="M181.6,193.6c0-0.2,0.1-0.4,0.1-0.6c0.7-9,4.8-16.6,9.5-24c3.9-6.1,8.6-11.6,14.2-16.2
		c1.4-1.2,2.8-2.6,4.9-2.5l0,0c1,1.2,0.4,2.6,0.4,3.9c0,0.7-0.2,1.4-0.3,2.1c-0.8,2.6-1.1,5.5-2.3,8c-0.8,4.9-3.6,8.9-5.8,13.2
		c-0.5,0.6-0.9,1.3-1.3,1.9c-2.1,3.7-4.7,7.2-7.7,10.3c-1,1.4-2.1,2.7-3.5,3.6c-1.6,1.6-3.4,3-5.4,4.1c-2,1.1-2.9,0.5-3-1.7
		C181.2,195.1,181.2,194.3,181.6,193.6z"/>
	<path class="st7" d="M57,163.7c-1-2.5-1.8-5-2.3-7.7c-0.5-1.7-0.5-3.5-0.5-5.3c0-1.1,0.6-1.3,1.5-1.1c0.9,0.2,1.7,0.8,2.4,1.4
		c6.2,4.5,11,10.2,15.1,16.6c3,4.6,5.8,9.3,7.8,14.5c1,2.5,1.7,5,1.8,7.6c0,0.9,0.4,1.7,0.5,2.6c0,0.1,0.1,0.2,0.1,0.3
		c0.5,0.7,0.4,1.5,0.4,2.2c0,2.5-1.3,3.2-3.4,1.8c-2-1.2-3.9-2.6-5.4-4.3c-1.2-1.2-2.4-2.3-3.5-3.6c-2.9-3.3-5.6-6.8-7.6-10.7
		c-0.1-0.1-0.2-0.3-0.3-0.4C60.7,173.4,58,168.9,57,163.7z"/>
	<path class="st8" d="M214.4,158.7c-1.5-5.5-1.1-11.1-1-16.6c0.3-3.6,0.5-7.3,1.4-10.8c1.5-5.6,3.1-11.1,6.5-15.9
		c0.5-0.7,0.9-1.6,1.9-1.4c1,0.1,1.3,1,1.7,1.9c1.2,2.7,1.2,5.6,1.6,8.4c0.1,0.7,0.1,1.3,0.3,2c0.4,5,0,9.9-0.8,14.7
		c-0.7,4.4-1.4,8.8-3.1,12.9c-1,2.8-2.3,5.4-4,7.8c-0.5,0.8-1.1,1.8-2.1,1.6c-1.1-0.2-1.5-1.3-1.8-2.4
		C214.6,160.1,214.7,159.3,214.4,158.7z"/>
	<path class="st9" d="M51.6,142.1c0.1,5.3,0.4,10.7-1,15.9c-0.5,1.1-0.2,2.4-1,3.5c-1.1,1.4-1.7,1.5-2.8,0.1
		c-2.1-2.5-3.5-5.4-4.5-8.4c-1.7-4.1-2.6-8.5-3.2-12.9c-0.8-5.1-1.1-10.2-0.7-15.4c0.4-1.8,0.5-3.7,0.8-5.6c0.2-1.5,0.6-2.8,1.1-4.2
		c0.3-0.8,0.6-1.6,1.5-1.8c1-0.2,1.5,0.6,2,1.3c2.1,2.8,3.4,6,4.5,9.2c1.1,3.3,2,6.7,2.7,10.1C51.5,136.6,51.4,139.4,51.6,142.1z"/>
	<path class="st10" d="M39.8,77.3c-0.3-2.8,1.2-4.9,2.3-7.3c0.2-0.4,0.5-0.9,0.7-1.3c3-5.9,7.4-10.7,12.2-15.2
		c4.1-3.8,8.4-7.3,13.4-10c1-0.5,2-0.6,3-0.9c1-0.2,2.4-1.3,3-0.3c0.7,0.9-0.2,2.3-0.6,3.4c-2.4,6-6,11.1-10.2,15.9
		C60.1,65.5,56.4,69,52.3,72c-2.1,2.4-4.9,3.9-7.8,4.9C43.1,77.5,41.4,78.3,39.8,77.3z"/>
	<path class="st10" d="M215.4,50.3c-0.7-3.1-1.4-6.1-2.2-9.1c-0.2-0.6-0.2-1.2-0.2-1.8c-0.3-1.9-0.4-3.8-0.6-5.7c0-0.1,0-0.2,0-0.3
		c-0.2-5.8-0.5-11.5,0.6-17.2c0-0.2,0.1-0.4,0.2-0.6c0.3-0.8,0.5-1.7,1.4-1.9c1-0.2,1.5,0.6,2,1.2c2.9,3.8,4.7,8.2,6.2,12.6
		c2,6,3,12.3,2.8,18.6c-0.1,2.5,0.2,5.1-0.1,7.6c-0.1,2.9-0.6,5.7-2,8.3c-1,0.7-1.8,0-2.5-0.6c-2-1.8-3-4.2-4.1-6.6
		c-0.2-0.6-0.4-1.2-0.7-1.7C215.8,52.2,216.1,51.1,215.4,50.3z"/>
	<path class="st11" d="M31.3,114.6c0.1-1.6,0.1-3.3,0.4-4.9c0.1-4,1.4-7.8,2.8-11.6c2.5-6.8,5.7-13.2,10.3-18.9
		c1.2-1.4,2.5-2.7,3.8-4c0.4-0.4,0.9-0.6,1.4-0.9c0.8-0.3,1.2-0.2,1.3,0.8c0.3,3.7,0.2,7.3-0.5,10.9c-0.6,4.3-1.9,8.4-3.3,12.4
		c-1,2.7-1.9,5.4-3.5,7.8c-0.1,0.2-0.1,0.5-0.1,0.8c-1.3,3-2.9,5.8-5.1,8.3c-1.4,1.5-2.6,3.2-4.5,4.3c-0.6,0.3-1.2,0.7-2,0.7
		C31,120,31,118.9,31,118C30.8,116.9,30.6,115.7,31.3,114.6z"/>
	<path class="st10" d="M221.3,69.1c0.8,1.8,1.9,3.4,2.4,5.3c0.2,0.2,0.1,0.5,0.2,0.8c0.5,2.6,0.3,2.9-2.3,2.4
		c-3.2-0.6-6.1-2-8.3-4.5c-4.5-2.8-8.3-6.4-11.8-10.3c-3.9-4.2-7.4-8.9-10-14.1c-0.8-1.6-1.5-3.3-2-5.1c-0.1-0.5-0.6-0.9-0.2-1.4
		c0.5-0.5,1-0.2,1.6,0c0.3,0.1,0.5,0.1,0.8,0.2c6.5,1.3,11,5.9,15.9,9.9c4,3.3,7.4,7.2,10.5,11.3C219.3,65.3,220.4,67.1,221.3,69.1z
		"/>
	<path class="st12" d="M247.7,121c-1.7,1.8-2.4,4.2-4,6c-2.7,3.2-5.4,6.4-9.1,8.6c-1,0.6-1.6,0.6-2-0.6c-0.7-1.1-0.4-2.3-0.3-3.4
		c0.3-1.2,0.6-2.4,0.6-3.7c0-0.3,0-0.5,0.1-0.8c1.6-7,4.8-13.4,8.7-19.4c3.4-5.3,7.2-10.2,12.3-14c0.9-0.7,1.8-1.4,3-0.6
		c0.5,4.9-0.9,9.4-2.5,13.9C252.8,111.9,250.5,116.6,247.7,121z"/>
	<path class="st10" d="M192,33.4c-2.3-3.9-4.8-7.6-6.6-11.8c-1.4-3.3-2.5-6.7-3.2-10.2c-0.3-1.4,0.4-1.5,1.5-1.3
		c3.5,0.7,6,3.1,8.4,5.4c7.2,6.6,12.8,14.3,17.1,23.1c0.5,1,0.3,2.2,0.8,3.2c0.5,1.6,1.2,3.2,1.4,5c0.2,0.6,0.3,1.3,0.4,1.9
		c0.3,1.2-0.3,1.8-1.5,1.7c-1.6-0.2-3.1-1-4.4-1.9c-5.1-3.7-9.5-8.2-13.1-13.3C192.5,34.5,192.2,34,192,33.4z"/>
	<path class="st10" d="M55,41c0.9-2.1,1.6-4.3,2.8-6.3c2.5-4.3,5.2-8.5,8.4-12.4c3-3.6,6.4-6.9,10-9.9c1.6-1.3,3.2-2.4,5.3-2.9
		c1-0.2,1.4-0.1,1.1,1c-0.1,0.5-0.2,1-0.1,1.5c-0.7,4.5-2.6,8.7-4.7,12.7c-1.5,2.7-3.1,5.3-4.7,7.9c0,0.2-0.1,0.3-0.2,0.5
		c-3.9,6.1-8.9,11.3-15.1,15.3c-0.8,0.5-1.7,0.8-2.6,1.1c-1.5,0.5-2.5-0.5-2-1.9c0.2-0.6,0.4-1.2,0.6-1.9C53.9,44.1,54.5,42.5,55,41
		z"/>
	<path class="st13" d="M256.7,61.7c0.8,4.7-0.3,9.3-1.3,13.9c-0.8,3.5-2.1,6.8-3.3,10.1c-0.7,3.8-2.7,7-4.6,10.3
		c-1.7,3-3.7,5.8-6.2,8.2c-0.4,0.4-0.8,0.8-1.3,1.1c-1.7,1.3-2.3,1.1-3.2-0.9c-0.5-2.7-0.2-5.3,0-8c0.3-5.6,2.3-10.7,4.4-15.7
		c2.4-5.6,5.3-10.8,9.1-15.5c1.2-1.5,2.6-2.9,4-4.2C255.7,59.8,256.2,60,256.7,61.7z"/>
	<path class="st10" d="M238.7,74.1c-0.4,3.7-1.2,7.3-3,10.6c-0.8,1.4-1.2,1.4-2.2,0.1c-2.3-3-3.4-6.5-4.2-10.1c-0.5-2.3-1-4.5-1-6.9
		c-0.8-6.7-0.6-13.5,0-20.2c0.3-3.5,1.4-6.8,2.9-10c0.8-1.6,1.8-1.7,2.9-0.3c1,1.2,1.6,2.7,2.1,4.1c2.3,6,3,12.2,3.1,18.6
		C239.3,64.6,239.5,69.3,238.7,74.1z"/>
	<path class="st3" d="M128.7,201.7c-1.7,0.7-3.2,1.7-4.4,3.2c-3.4-4.5-7.3-8.3-11.7-11.8c-5.1-4.1-10.6-7.5-16.5-10.3
		c-2.6-1.2-5.3-2.2-8.2-2.6c-0.6-0.1-1.2-0.2-1.7-0.6c1-0.3,1.8,0.4,2.9,0.3c-0.8-1.9-2.3-3.3-3.2-5.1c-0.5-1-0.8-2-1.3-3
		c-0.5-0.9-0.1-1.2,0.8-1.2c1.9-0.1,3.7,0.6,5.5,1.2c9.9,3.4,18.5,9,26.2,16c4,3.7,7.7,7.7,10.2,12.7
		C127.5,201.2,127.8,201.9,128.7,201.7z"/>
	<path class="st3" d="M177.4,180.7c-1.5,1.1-3.5,0.9-5.2,1.6c-5.7,2.2-11,5.1-15.9,8.7c-4.1,3-8.1,6.2-11.6,9.9
		c-1.1,1.1-2.1,2.2-3,3.5c-0.6,0.8-1,0.7-1.5,0.1c-0.8-1-1.9-1.5-2.8-2.3c4.1-8.2,10.7-14,17.9-19.4c4.5-3.4,9.3-6.1,14.4-8.4
		c3-1.3,6.2-2.4,9.5-2.9c1.1-0.2,1.4,0.2,1.1,1.3c-0.8,2.7-2.3,5-4.1,7.1c-0.3,0.3-0.5,0.6-0.6,1C176.2,181,176.8,180.5,177.4,180.7
		z"/>
	<path class="st14" d="M181.6,193.6c0,0.9,0,1.8,0.1,2.6c0.1,1.6,0.7,1.9,2.1,1.1c2.2-1.1,4-2.8,5.9-4.3c0.8,0.4,1.8-0.1,2.4,0.8
		c-0.1,0.5-0.5,0.8-0.9,1.2c-1.1,1.2-1,1.8,0.6,2.4c2.9,1.1,6,1.3,9,1.5c3.8,0.2,7.6-0.1,11.5-0.4c0.6-0.1,1.2-0.3,1.7,0.2
		c0.5,0.9,1.6,1.1,2.4,1.7c0.8,0.6,1.4,1.1,0.1,1.9c-2.3,1.5-4.9,2.1-7.5,2.8c-0.7,0.2-1.1,0.2-0.6,1c-0.4,0.4-0.9,0.3-1.4,0.2
		c-9.7-3.1-19.7-3.3-29.7-2.7c-2.1,0.1-4.1,0.9-6.2,0.9c-1.7-0.7-3.5-1.3-5.2-2.1c-0.6-0.3-1.3-0.4-1.5-1.2c2.5-2.2,5-4.5,7.4-6.9
		c0.2,1,0.9,0.6,1.4,0.4C176,193.9,178.8,193.8,181.6,193.6z"/>
	<path class="st14" d="M75,192c1.7,1.6,3.5,3,5.4,4.3c0.7,0.5,1.5,1,2.3,0.6c0.9-0.4,0.5-1.4,0.6-2.1c0.1-0.7,0-1.4,0-2.2
		c3,0.2,5.9,0.5,8.8,1.2c0.5,0.1,1,0.3,1.4-0.1c2.5,2.4,4.9,4.9,7.7,7c-1.1,0.5-2.2,0.6-3.3,1.2c-1.1,0.5-2.4,0.7-2.8,2.1
		c-0.6,0.1-1.1-0.1-1.6-0.2c-6.2-1.8-12.6-1.8-18.9-1.4c-5.5,0.3-10.8,1.4-16.1,2.8c-0.4,0.1-0.9,0.2-1.2-0.2
		c-1.2-1.3-3.1-0.9-4.6-1.6c-1.5-0.7-3.1-1.1-4.5-2.1c-0.7-0.5-0.8-0.8,0.1-1.4c0.8-0.5,1.9-0.7,2.4-1.6c0.7-1,1.7-0.8,2.5-0.6
		c4,0.9,8,0.6,12.1,0.5c2.7-0.1,5.4-0.5,7.9-1.5c1.7-0.7,1.8-0.8,0.6-2.2c-0.3-0.3-0.6-0.7-0.7-1.1C73.6,192.5,74.5,192.5,75,192z"
		/>
	<path class="st15" d="M216,93.7c-0.1-0.1-0.1-0.1,0-0.2c-0.4-1.1,0.4-1.6,1.2-1.7c2.8-0.4,5.7-0.4,8.6,0c0.8,0.1,1.3,0.8,1.9,1.2
		c1.7,3,3.1,6.1,4,9.4c0.5,2,1.3,4,1.5,6.1c0.1,0.9-0.2,1.7,0.1,2.6c0.1,1.3,0.3,2.6,0.4,4c0.7,2,0.9,4-0.5,5.9
		c-0.9,0.4-1.6,0-2.3-0.5c-1.7-1.3-3.2-2.8-4.5-4.4c-1.6-2-3-4.2-4.3-6.5c-0.3-0.6-0.7-1.1-0.8-1.8c-0.8-1.7-1.6-3.3-2.3-5
		c-0.7-1.9-1.7-3.8-2.1-5.9C216.6,95.8,216.6,94.6,216,93.7z"/>
	<path class="st14" d="M42.7,153.3c1.2,2.5,2.2,5.1,4,7.3c0.5,0.6,0.9,1.7,1.6,1.5c0.9-0.2,1.3-1.2,1.6-2.1c0.3-0.7-0.1-1.6,0.8-2.1
		c-0.1,0.9,0.2,1.6,0.9,2.1c1.6,1.3,3.1,2.7,4.6,4c0.8,0.7,0.8,0.1,0.8-0.5c1.1,1,0.9,2.5,1.5,3.8c1.6,3.5,3.4,7,5.5,10.3
		c-1.4,0-2.8-1-4.3-0.6c-0.5-0.1-0.8-0.4-1.1-0.7c-4-4.8-8.9-8.4-14.1-11.9c-4.5-3.1-9.4-5.4-14.4-7.5c-1.9-0.8-3.8-1.5-5.9-1.7
		c-0.7-0.1-1.6,0.1-1.9-1c0.5,0,1.1-0.1,1.8-0.1c-1.9-2.7-4.5-4.9-5.2-8.3c3.2,1.9,6.1,4.1,9.5,5.6c2.6,1.2,5.3,2.5,8.2,2.7
		c2.1,0.1,2.1,0,1.6-1.9c-0.1-0.4-0.2-0.7-0.3-1.1c0.8-0.5,1.3,0.2,1.9,0.5C41,152.2,41.8,152.9,42.7,153.3z"/>
	<path class="st14" d="M214.4,158.7c0.8,0.8,0.6,2.1,1.2,3c0.9,1.4,1.6,1.5,2.5,0.1c1.4-2.3,3.3-4.4,3.7-7.2c0-0.2,0.3-0.4,0.5-0.6
		c1-0.3,1.8-1,2.7-1.4c0.5-0.3,1-0.7,1.6-0.3c0,0.3,0.1,0.7,0,1c-0.4,2.1-0.3,2.3,1.8,1.9c5.3-1,9.9-3.5,14.3-6.3
		c1.1-0.7,2.2-1.4,3.3-2.1c-0.7,3.1-2.9,5.3-4.8,7.7c-0.2,0.3-0.5,0.5-0.6,0.9c0.1,0.9-0.7,0.8-1.1,0.9c-9.1,2.6-17.1,7.4-24.7,13
		c-3.1,2.3-5.9,5-8.5,7.9c-0.4,0.5-0.8,1-1.6,1c-0.9-0.2-2,0.3-2.8-0.6c0.3-1.7,1.5-2.9,2.2-4.4c1.3-2.7,2.6-5.3,3.5-8.2
		c0.1-0.2,0.3-0.5,0.4-0.7c0,0.3,0,0.6,0,1.2c2.1-1.8,4.1-3.6,6.1-5.3C214.6,159.8,214.2,159.2,214.4,158.7z"/>
	<path class="st3" d="M83.3,192.4c-0.6-0.9-0.6-1.9-0.7-2.9c-0.9-5.9-3.5-11.1-6.4-16.2c-4-7-8.6-13.5-14.6-18.9
		c-1.6-1.4-3.3-2.8-5.1-4c-1.6-1-2.1-0.7-2.2,1.1c-0.1,1.5,0.6,2.9,0.4,4.5c-0.9-1.6-1.2-3.6-0.5-5c1.4-2.9-0.1-5.5-0.1-8.2
		c0-0.4,0-0.8,0-1.2c0.1-1,0.5-1.4,1.5-0.8c3.2,1.8,5.9,4.2,8.4,6.7c6.8,7,12,15.1,16,24c1.9,4.2,3.5,8.6,3.4,13.4
		C83.3,187.5,82.9,189.9,83.3,192.4z"/>
	<path class="st3" d="M210.4,150.4c-4.7,2-8,5.7-11.3,9.3c-5.2,5.6-9.3,12.1-12.7,19c-1.9,3.9-3.5,8-4,12.4c-0.1,0.7-0.1,1.4-0.6,2
		c0.7-3.3-0.5-6.7,0.1-10.1c1.1-5.7,3.2-11.1,5.9-16.2c3.9-7.4,8.8-14.1,14.9-19.9c2-1.9,4-3.6,6.4-5c1.4-0.8,1.8-0.6,1.9,1.1
		c0.1,2-0.6,3.8-0.8,5.7C210.1,149.3,210,149.8,210.4,150.4z"/>
	<path class="st3" d="M210,41.7c-1-1-0.9-2.4-1.5-3.6c-3.6-7.8-8.7-14.5-14.7-20.6c-2.8-2.9-5.8-5.8-9.8-7.1c-0.1,0-0.2-0.3-0.3-0.4
		c0.7-0.1,0.5-0.6,0.3-1c-0.8-2-1.2-4.1-1.7-6.2c-0.1-0.6-0.6-1.3,0-1.7c0.6-0.4,1.3-0.2,1.9,0.2c1.1,0.7,2.4,1.2,3.4,2
		c5.2,3.9,9.6,8.6,13.5,13.8c3.4,4.6,6.3,9.4,8.5,14.7c1.1,2.6,1.8,5.2,2,8c0.1,0.8-0.1,1.4-1.1,1.2C209.8,40.8,210.2,41.4,210,41.7
		z"/>
	<path class="st14" d="M192,33.4c1.3,0.9,2,2.4,2.9,3.6c3.2,4.3,7.1,7.8,11.4,11c1.1,0.8,2.4,1.5,3.9,1.8c1.4,0.3,1.6-0.1,1.3-1.3
		c-0.1-0.6-0.1-1.2-0.1-1.8c0.9,2.1,2.6,3.6,4,5.3c0.5,0.2,0.7,0.7,1,1.1c1.1,1.9,1.6,4.1,2.9,5.8c1.1,1.4,1.8,3.3,4.1,3.2
		c-0.2,0.6-0.6,1.1-0.1,1.9c0.4,0.6,0.4,1.5,0.7,2.2c0.7,2.3,0.5,2.6-1.8,2.1c-1-0.2-1,0.1-0.8,0.8c-1.2-1-1.7-2.5-2.6-3.7
		c-4-5.8-8.8-10.9-14.4-15.2c-2.8-2.2-5.6-4.4-8.8-6.1c-1.3-0.7-2.9-0.4-3.9-1.6c0.5-0.1,1.3,0.2,0.7-0.9c-1.2-2.1-2.2-4.3-2.8-6.7
		c-0.1-0.5-0.7-1-0.2-1.5c0.5-0.5,1-0.2,1.6-0.1C191.3,33.3,191.6,33.3,192,33.4z"/>
	<path class="st14" d="M53.7,45.7c0.2,0.7-0.1,1.4-0.2,2.1c-0.2,1.3,0.4,1.7,1.6,1.3c2.9-1,5.2-2.9,7.4-4.8c4-3.3,7.3-7.3,10.2-11.6
		c0.7,0.6,2.6,0.1,1.7,2c-0.7,2.4-1.6,4.7-2.9,6.9c-0.2,0.3-0.6,0.7-0.1,1.1c-0.6,1-1.9,0.7-2.8,1.2c-6.4,3.5-11.8,8.1-16.7,13.3
		c-3.3,3.4-6.3,7.1-8.6,11.3c-0.1,0.1-0.3,0.2-0.4,0.2c0.1-1.1-0.6-0.6-1.1-0.5c-0.6,0.2-1.4,0.5-1.8-0.1c-0.4-0.6-0.2-1.4,0.1-2.1
		c0.6-1.5,1.2-2.9,1.8-4.4c3.7-2.7,5.4-6.6,6.7-10.8c0.2-0.6,0.1-1.5,1.2-1.5c0.2,0.3-0.1,1.4,0.7,0.5C51.5,48.5,53,47.4,53.7,45.7z
		"/>
	<path class="st3" d="M256.7,61.7c-0.5-1.4-1.1-1.3-2.1-0.4c-4.1,3.7-7.1,8.1-9.8,12.9c-2.4,4.4-4.4,9-5.9,13.7
		c-0.9,2.8-1.4,5.6-2.1,8.5c-1-7.4,0.9-14.4,3.4-21.2c2.5-6.8,5.9-13.1,10.5-18.8c1.2-1.5,2.6-2.9,4-4.2c0.4-0.4,0.8-0.8,1.4-0.6
		c0.6,0.2,0.4,0.8,0.5,1.3C257.4,55.9,256.5,58.8,256.7,61.7z"/>
	<path class="st14" d="M232.6,120.8c1.1-0.4,0.9-1.5,1-2.3c0.1-1.1,0.1-2.3,0.1-3.4c0.3,0.1,0.5,0.3,0.6-0.2
		c0.7-2.7,1.8-5.2,3.1-7.6c0.3-0.5,0.1-0.8-0.2-1.2c-0.3-0.5-0.7-1-0.5-1.7c1.3,1.8,1.5,1.8,3.3,0.2c3.8-3.3,6.2-7.5,8.6-11.7
		c1.3-2.3,2-4.8,3.3-7.1c0.1,0.5,0.3,0.8,0.9,0.3c1-0.8,2.1-1.4,3.1-2.2c0.8-0.6,1.1-0.3,1.1,0.6c0.1,2.1,0.1,4.2-0.4,6.3
		c-0.2,0.9,0.1,1.6,0.4,2.4c-1.8-0.4-2.9,0.9-4,1.9c-5,4.2-8.9,9.5-12.3,15c-3.2,5.3-5.8,11-7.4,17.1c-0.6,0-1-0.4-1-0.9
		C232.2,124.3,231.8,122.5,232.6,120.8z"/>
	<path class="st16" d="M227.7,93.4c-3.2-2.5-6.8-1-10.3-1.3c-0.7-0.1-1.4,0.5-1.4,1.4c-1-1.7-1-3.7-1.5-5.5
		c-0.2-0.9-0.7-1.9-0.5-2.9c-0.3-3.3-0.5-6.7,0-10l0,0c0.9-0.6,1.5,0.1,2,0.6c2.1,1.6,3.8,3.6,5.3,5.7c2.4,3.1,4.4,6.5,6,10.1
		C227.7,92,228.2,92.6,227.7,93.4z"/>
	<path class="st17" d="M225.4,53.7c0-1.2-0.1-2.3,0-3.5c0.2-5.9-0.4-11.7-1.7-17.4c-1.5-6.2-3.6-12.1-7.3-17.4
		c-0.5-0.7-1-1.7-1.8-1.5c-0.9,0.2-1.1,1.4-1.3,2.3c-1.2,5-1.1,10-1,15c0,0.7,0,1.4,0,2.2c-0.4-0.5-0.3-1-0.3-1.6
		c-0.1-6.5-0.2-13.1,0.4-19.6c0.2-2.2,0.6-4.5,1.5-6.6c0.4-1,0.8-1,1.5-0.3c1.6,1.7,2.7,3.7,3.7,5.8c1.3,2.8,2.5,5.6,3.4,8.6
		c1.3,4.5,2.2,9,2.7,13.6c0.6,6.1,0.5,12.2,0.4,18.3C225.7,52.3,225.9,53.1,225.4,53.7z"/>
	<path class="st14" d="M50.7,86c0.4-3.4,0.4-6.8,0.3-10.3c0-1.2-0.2-1.6-1.4-0.8c-2.4,1.7-4.2,4-6,6.3c-4.1,5.5-6.9,11.7-9.3,18.1
		c-1.2,3.4-1.8,6.9-2.8,10.3c-0.7-2.2-0.5-4.5-0.2-6.7c1.1-8.4,3.9-16.3,7.9-23.8c0.3-0.6,0.6-1.2,0.4-1.9c4.4,0.1,7.9-2.1,11.3-4.6
		c0.4-0.3,0.7-0.8,1.2-0.7c-1.3,1-1.1,2.4-0.9,3.8C52,79.3,51.7,82.7,50.7,86z"/>
	<path class="st14" d="M227.7,93.4c-1.3-3.8-3.4-7.1-5.6-10.4c-1.9-2.7-4-5.2-6.6-7.3c-0.5-0.4-0.9-0.7-1.5-0.6
		c0.1-0.8-0.5-1.2-0.7-1.9c1.8,1.2,3.6,2.3,5.6,3.3c1.2,0.6,2.5,0.7,3.8,1c1.1,0.3,1.6-0.2,1.2-1.4c-0.2-0.5-0.1-1.1-0.2-1.6
		c0.1,0.1,0.2,0.3,0.3,0.4c0.4,4.4,3.4,7.7,4.8,11.7c1.6,4.3,3.1,8.6,4,13.1c0.8,3.8,1.3,7.6,0.5,11.5c-0.6-2.3-1-4.7-1.6-7
		C230.8,100.3,229.1,96.9,227.7,93.4z"/>
	<path class="st18" d="M238.7,74.1c0.5-5,0.4-10,0.3-15c-0.1-5.8-1.1-11.5-3.2-17c-0.6-1.7-1.3-3.4-2.3-4.9
		c-0.8-1.2-1.4-0.9-1.8,0.2c-0.9,2.2-1.8,4.5-2.4,6.8c-1.4,5.9-1.4,12-1.3,18c0,1.8,0.6,3.6,0.3,5.5c-0.4-1-0.6-2.1-0.6-3.2
		c0-5.9-0.2-11.8,0.1-17.6c0.4-6.1,1-12.2,3.7-17.9c0.3-0.5,0.4-1.3,1-1.4c0.7-0.2,0.9,0.7,1.3,1.1c1.4,2,2.2,4.3,2.9,6.6
		c2.3,7.8,2.8,15.8,2.9,24c0,4.1,0.1,8.2-0.2,12.3C239.3,72.4,239.3,73.3,238.7,74.1z"/>
	<path class="st14" d="M38.4,115c1.8-2.2,3.4-4.6,4.5-7.2c0.1-0.3,0.5-0.5,0.8-0.8c1.6,1.2,2.2,3,2.8,4.7c2.5,6.2,4,12.7,4.8,19.3
		c0.4,3.6,0.4,7.3,0.3,10.9c-0.3-2.2-0.6-4.4-1-6.5c-1.2-6.4-2.7-12.7-6-18.4c-0.5-1-1.2-1.8-1.8-2.7c-0.9-1.2-1.6-1.1-2.1,0.4
		c-1,2.7-1.4,5.5-1.7,8.4c-0.1,0.5,0.1,1.1-0.3,1.6c-0.6-0.5-0.6-1.2-0.6-1.8C38.2,120.3,38,117.6,38.4,115z"/>
	<path class="st14" d="M221.3,107.7c1.4,1.3,1.9,3.2,3,4.7c0.8,1.1,1.8,2.1,2.4,3.3c0.4,2.9,0.2,5.9,0.2,8.9c0,0.5-0.1,1.1-0.5,1.5
		c-0.3-2.3-0.7-4.6-0.9-6.9c-0.1-1.5-0.8-2.7-1.3-4.1c-0.4-1.2-1.1-1.2-1.9-0.1c-3.2,4.1-4.7,8.9-6.2,13.8
		c-1.3,4.3-1.7,8.8-2.6,13.3c-0.3-4.7,0-9.3,0.8-13.9c0.9-5.3,2.2-10.6,4.3-15.6C219.1,110.9,219.7,108.9,221.3,107.7z"/>
	<path class="st14" d="M214,75c0,3.3,0,6.7,0,10C213.3,81.7,212.9,78.4,214,75z"/>
	<path class="st3" d="M210.4,156.4c-0.3-1.1,0.3-2.2,0.3-3.3c0-0.9,0.1-1.9-0.4-2.8c0.3,0,0.6,0.1,0.6,0.4
		C211,152.7,211.4,154.6,210.4,156.4z"/>
	<path class="st19" d="M74.4,34.7c0-0.7,0-1.5-1.1-1.4c-0.4,0-0.6-0.3-0.6-0.6c0.1-0.1,0.2-0.1,0.2,0c0.7,0.2,1.6-0.4,2,0.5
		C75.2,33.8,75,34.4,74.4,34.7z"/>
	<path class="st17" d="M212.4,33.7c0.4,1.9,0.8,3.8,0.6,5.7C212.4,37.5,212.2,35.6,212.4,33.7z"/>
	<path class="st16" d="M216,93.7c0.8,0.9,1.1,1.9,1,3.1C216.2,95.9,216.2,94.8,216,93.7z"/>
	<path class="st20" d="M216.4,53c-0.5-0.2-0.9-0.5-1-1.1c0.7-0.5-0.2-1.1,0-1.7C216.2,51.1,216.3,52,216.4,53z"/>
	<path class="st3" d="M85,179.7c0,0.7,0,1.3,0,2C84.7,181,83.6,180.4,85,179.7z"/>
	<path class="st2" d="M73.4,193.1c0.5,0.6,1,1.1,1.6,1.7c0.8,0.9,0.7,1.4-0.4,2c-2.8,1.3-5.9,1.7-8.9,1.9c-4.2,0.2-8.4,0.5-12.6-0.5
		c-0.7-0.2-1.5-0.4-2.2,0.2c-3.7-0.9-7.5-1.6-11.2-2.7c-6.2-1.8-12.3-3.8-17.5-7.9c-0.4-0.3-0.6-0.7-0.9-1c-0.6-0.6-0.2-0.9,0.3-1
		c1.4-0.3,2.7-1.1,4.2-1.1c7.2-1.9,14.5-1.9,21.8-0.8c6.9,1,13.6,2.5,20,5.4C69.6,190.3,71.8,191.2,73.4,193.1z"/>
	<path class="st21" d="M57.3,205c1.8-0.5,3.7-1,5.6-1.4c7.7-1.8,15.5-2.4,23.5-1.7c2.8,0.3,5.6,0.7,8.2,1.7c0.3,0.1,0.8,0,1.1,0.1
		c0.7-0.4,1.2,0,1.8,0.2c1.4,0.7,3.1,0.8,4.3,2c1.4,1.3,1.4,2-0.1,3.2c-2.1,1.6-4.5,2.4-6.9,3.2c-6.4,2.1-13,2.8-19.6,3.3
		c-1,0.1-2-0.1-2.9-0.4c-4.3,0-8.7-0.4-12.9-1.1c-3.7-0.6-7.5-1.4-10.8-3.4c-1-0.6-1.4-1-0.1-1.8C51.3,207.1,54.3,205.9,57.3,205z"
		/>
	<path class="st22" d="M22.4,154.4c1.8,1,3.8,0.8,5.7,1.5c5.5,2,10.6,4.5,15.5,7.6c5,3.1,9.6,6.7,13.7,10.9c0.8,0.9,1.6,1.8,2.4,2.7
		c0.9,0,1.1,0.9,1.6,1.3c1.2,1.5,2.1,3.1,2.9,4.9c1,2.5,0.3,3.4-2.4,3.1c-5.6-0.6-10.5-3-15.4-5.4c-2.9-1.4-5.6-3.2-8.3-5
		c-0.6-0.4-1.2-0.8-1.5-1.6c-4.1-3.1-8.1-6.3-11.5-10.2c-2.3-2.6-4.7-5.2-6-8.6c-0.2-0.5-0.6-1.1-0.1-1.5c0.4-0.4,1.1-0.3,1.6,0
		C21.2,154.4,21.8,154.3,22.4,154.4z"/>
	<path class="st22" d="M205,178c1.3-1.3,2.5-2.6,3.8-3.9c4.7-4.8,10.2-8.5,16-11.9c3.9-2.2,7.9-4.1,12-5.7c1.3-0.5,2.7-0.5,3.9-1.2
		c1.3-0.2,2.6-0.3,3.9-0.5c1.7-0.2,1.8,0,1.3,1.7c-0.9,2.6-2.7,4.7-4.4,6.7c-3.7,4.3-7.9,8.1-12.5,11.4c-0.3,0.9-1,1.4-1.8,1.9
		c-5.6,3.9-11.6,7-18,9.2c-2.3,0.8-4.6,1.6-7.1,1.3c-1.5-0.2-1.8-0.4-1.5-1.9c0.5-2.5,1.9-4.6,3.5-6.5
		C204.3,178.4,204.5,178,205,178z"/>
	<path class="st2" d="M214,198.7c-4.1,0.5-8.1,0.8-12.2,0.7c-3.3-0.1-6.5-0.4-9.6-1.4c-0.9-0.3-2.2-0.4-2.4-1.5
		c-0.2-1.1,0.9-1.5,1.5-2.2c0.2-0.2,0.5-0.4,0.8-0.6c0.8-1.6,2.4-2,3.8-2.8c0.5-0.3,1.1-0.5,1.7-0.8c3.4-2,7.2-2.9,10.9-3.8
		c2.1-0.5,4.3-1,6.5-1.4c5.5-1,11-1.1,16.5-1c1.1,0,2.3,0.1,3.4,0.7c2.8,0.1,5.5,0.8,8.1,1.6c1.5,0.5,1.5,0.9,0.3,2
		c-2,1.8-4.3,3.1-6.7,4.2c-5.7,2.6-11.7,4.4-17.9,5.6c-0.2,0-0.3,0-0.5,0C216.7,198.4,215.3,198.3,214,198.7L214,198.7z"/>
	<path class="st21" d="M170.7,204c5.5-1.3,11.2-1.4,16.8-1.4c5.7,0.1,11.2,0.9,16.7,2.1c1.4,0.3,2.7,1.2,4.2,1.3
		c2.9,0.7,5.6,2,8.2,3.5c1,0.6,1,1.1-0.1,1.7c-2.9,1.8-6.2,2.5-9.5,3.2c-1.4,0.3-2.8,0.7-4.3,0.6c-2.8,0.5-5.7,0.2-8.6,0.7
		c-4.2,0.7-8.4,0.2-12.6-0.3c-5.9-0.6-11.7-2.1-17-4.8c-1.1-0.6-2.6-1.1-2.5-2.6c0.1-1.6,1.7-1.8,2.9-2.5c0.5-0.3,1-0.4,1.5-0.7
		C167.9,204.5,169.1,203.5,170.7,204z"/>
	<path class="st14" d="M36.6,174.4c4.1,2.9,8.4,5.5,12.9,7.6c4.1,1.9,8.2,3.6,12.7,4c1.9,0.2,2.3-0.2,1.8-2c-0.6-2.1-2-3.8-3-5.6
		c0.6-0.4,1.3-0.1,1.9,0.1c0.6,0.2,0.9,0,1.2-0.4c1.6,2.4,3,5,4.9,7.2c1,1.1,1.9,2.3,2.8,3.5c-1.1,1.2-2.7,0.6-4,1
		c-2-0.5-3.8-1.5-5.8-2.2c-5.3-1.7-10.7-2.7-16.1-3.5c-4.7-0.7-9.4-0.4-14.1-0.3c-2,0.1-4,0.8-6,0.9c1.3-1,3-0.4,4.6-1.2
		c-2.5-1-4.8-2.2-6.8-3.7c-0.9-0.7-2.4-1.2-2.2-2.4c0.1-1,1.6-1,2.5-1.2c3-0.7,6-1.4,9.1-1.4C34.1,174.7,35.4,174.9,36.6,174.4z"/>
	<path class="st14" d="M234.7,184.7c-1.6-0.1-3.2-0.3-4.8-0.3c-6.8-0.1-13.6,0.5-20.2,2.2c-3.6,0.9-7.2,1.9-10.7,3.2
		c-0.6,0.2-0.9,1-1.7,0.9c-1.4-0.6-3-0.1-4.3-0.9c2.8-3.2,5.4-6.6,7.6-10.4c0.8,0.2,1.5-0.1,2.3-0.3c0.5-0.2,0.9-0.7,1.5-0.2
		c-1.3,2.1-3,4-3.5,6.6c-0.3,1.2,0.2,1.2,1.1,1.3c2.4,0.3,4.7-0.5,6.8-1.3c5.6-1.9,10.8-4.6,15.8-7.8c1.5-1,2.9-2,4.3-3
		c0.1,0.6,0.5,0.7,1,0.7c3.7,0.2,7.4,0.3,11,1.3c1.1,0.3,2.6,0.4,2.9,1.3c0.4,1.1-1.1,1.6-1.9,2.2c-1.8,1.5-3.9,2.5-6,3.5
		C235.4,183.9,234.8,183.9,234.7,184.7z"/>
	<path class="st14" d="M166.7,205.1c-1,0.9-2.5,1.1-3.6,1.9c-1,0.7-1.1,1.3-0.1,2c2.4,2,5.4,2.9,8.4,3.8c6.5,2,13.2,2.8,19.9,2.7
		c3.2-0.1,6.4,0,9.6-0.5c0.6-0.1,1.2,0,1.8,0c-2.2,0.8-4.5,0.7-6.7,0.7c-2.5,0-4.6,1-6.8,1.7c-1.6,0.5-3.2,1-4.8,0.9
		c-0.7,0-1.1,0.2-0.7,0.9c-2.3-0.6-4.4-1.8-6.8-2.5c-2.2-0.6-4.4-1.3-6.7-1.8c-6.9-1.5-14-2-21.1-1.8c-1.1,0-2.1,0.7-3.2,0.6
		c-0.2-0.4-0.6-0.6-0.7-1c4.4-1.9,8.6-4.1,12.5-6.9c0.9-0.6,1.8-1.3,2.6-1.9c1.5,0.4,3,0.4,4.6,0.6
		C165.6,204.7,166.3,204.6,166.7,205.1z"/>
	<path class="st14" d="M72.3,215.1c4.4,0.2,8.9-0.5,13.2-1.1c5.3-0.8,10.6-2.1,15.4-4.9c0.3-0.2,0.5-0.4,0.8-0.5
		c1.5-0.8,1-1.6,0-2.3c-0.9-0.7-1.9-1.3-3.1-1.5c-0.5-0.1-1-0.1-1.3-0.7c1.7-0.5,3.6-0.1,5.3-0.5c0.5-0.1,1.1,0.1,1.4-0.6
		c1.5,1,3,2.1,4.5,3.1c3.7,2.6,7.7,4.6,11.8,6.2c-0.4,0.7-1.2,0.1-1.7,0.7c-2.6-0.1-5.3-0.8-7.9-0.6c-4.3,0.4-8.7,0.6-13,1.4
		c-4.3,0.8-8.5,2-12.8,3.2c-1.2,0.3-2.1,1.2-3.4,1.3c-1.1-0.7-2.3-0.8-3.5-1C76,217.1,74,216.5,72.3,215.1z"/>
	<path class="st18" d="M140.4,219.3c3.4,2.2,7.2,3.8,11.1,4.9c1.2,0.3,2.5,0.3,3.6,1.1c-0.8,0.2-1.6-0.5-2.4-0.3
		c-0.2,0.3,0.1,0.5,0.3,0.6c1.7,1.7,1.7,1.7,0.1,3.4c-0.6,0.7-1.4,1.3-1.7,2.2c-1,0.9-1.5-0.1-2-0.6c-2.1-2.2-3.8-4.6-5.7-6.9
		c-0.8-1-1.6-2-2.5-2.9C140.7,220.4,140.1,220.1,140.4,219.3z"/>
	<path class="st18" d="M107.3,225.3c0.2-0.2,0.4-0.5,0.6-0.5c4.9-0.6,9.3-2.4,13.8-4.4c-2.8,3-5.5,6-8.3,9.1c-0.7,0.7-1.1,0.9-1.8,0
		c-0.6-0.7-1.3-1.2-2-1.7c-1.3-0.8-1.6-1.7,0-2.6C108.7,224.8,108.1,225.5,107.3,225.3z"/>
	<path class="st23" d="M140.4,219.3c3.3,3.5,6.2,7.5,9.3,11.1c0.4,0.5,0.8,1.1,1.6,0.8c-0.1,0.5-0.2,1-0.3,1.5
		c-2.7-1.9-4.9-4.3-7.4-6.4c-1.7-1.5-3.3-3.1-5-4.5c-1-0.8-0.9-1.3,0.2-1.8C139.3,219.7,139.5,218.8,140.4,219.3z"/>
	<path class="st14" d="M214,198.7c1.3-0.6,2.6-0.8,4-0.6C216.8,198.7,215.4,198.8,214,198.7z"/>
	<path class="st10" d="M49.7,49.3c-1.2,1.4-1.1,3.4-1.9,5c-1.3,2.5-2.4,5-4.7,6.8c-0.4,0.3-0.8,0.6-1.3,0.5c-1.3-2.8-2-5.8-2.1-8.9
		c-0.4-7.7-0.2-15.3,1.7-22.8c1.2-4.7,3.1-9.1,5.4-13.4c0.6-1.1,1.3-2.1,2.2-2.9c1.2-1.2,2-1.1,2.7,0.6c0.8,1.9,1,4,1.1,6
		c0.2,4,0.2,8.1,0,12.1C52.5,38.2,51.2,43.8,49.7,49.3z"/>
	<path class="st24" d="M32.4,134c-0.4,1.6-1.4,1.2-2.4,0.6c-2.5-1.6-4.7-3.7-6.6-5.9c-2-2.4-3.8-4.9-5.2-7.6
		c-0.2-0.3-0.4-0.3-0.7-0.2c-1.8-3.9-4.1-7.6-5.7-11.6c-2.1-5.6-4.4-11.1-3.6-17.2c1.1-0.6,1.9,0,2.7,0.6c2.9,2.1,5.4,4.7,7.7,7.5
		c5.8,7.2,10.2,15.1,13,23.9c0.3,0.9,0.2,1.8,0.5,2.6c0,0.2,0.1,0.3,0.1,0.5c0.1,1.4,0.4,2.7,0.6,4C32.8,132.2,33.1,133.2,32.4,134z
		"/>
	<path class="st11" d="M13,85C10.8,79.3,9,73.5,8.4,67.4c-0.2-2.3-0.3-4.6,0.1-6.9c0.2-1.2,0.7-1,1.4-0.6c1.6,1,2.8,2.3,4,3.7
		c5.6,6.5,9.4,14,12.2,22.1c1.2,3.4,2,6.8,2.2,10.3c0.2,2.3,0.4,4.6,0.1,7c-0.1,0.9-0.3,1.7-1,2.4c-1.3,0.4-2-0.7-2.8-1.4
		c-4.3-3.7-7-8.6-9.6-13.6C14.1,88.7,13.6,86.9,13,85z"/>
	<path class="st10" d="M36.7,67.1c-0.4,5.4-1.5,10.6-4.1,15.4c-0.5,1-1.2,2.5-2.3,2.4c-1-0.1-1.5-1.6-2-2.6c-0.3-0.6-0.2-1.6-1-2
		l0,0c-0.3-2.4-1-4.8-1.1-7.2c-0.7-4.7-0.9-9.5-0.5-14.2c0.2-2.6,0.1-5.3,0.5-8c0.7-4.6,1.8-9,4-13.1c0.5-1,0.9-2.4,2.3-2.4
		c1.2,0,1.4,1.4,1.8,2.4c1.5,3.5,2.5,7.1,2.7,10.9C37.2,54.8,37.6,60.9,36.7,67.1z"/>
	<path class="st3" d="M28.3,96.1c-0.7-2.7-1-5.5-1.9-8.2c-3.1-9.5-7.3-18.3-14.3-25.6c-0.7-0.8-1.6-1.4-2.4-2.1
		c-0.6-0.6-0.9-0.4-1,0.4c-0.5,2.3-0.1,4.5-0.3,6.8c-0.7-1.7-0.5-3.5-0.3-5.2c0.2-1.9,0.2-3.8,0-5.8C8,55,8,53.6,8.3,52.2
		c0.4-1.7,0.6-1.8,2.1-0.7c1.7,1.4,3.1,3,4.4,4.7c5.4,6.8,9.1,14.5,11.6,22.8c0.5,0.9,0.5,1.8,0.9,2.7c0,0.3,0.1,0.6,0.1,1
		c0.7,1.2,0.4,2.5,0.9,3.7C28.5,89.6,28.5,92.8,28.3,96.1z"/>
	<path class="st14" d="M13,85c1.3,1.4,1.3,3.3,2.2,4.9c2.7,5,5.4,10,9.7,13.9c0.7,0.7,1.5,1.3,2.5,1.6c0,1.4,0.9,2.3,1.4,3.5
		c0.6,1.5,1.1,3,1.7,4.5c0.2,0.4,0,1.2,0.8,1.2c0.2,1.5-0.2,3,0.3,4.4c0.2,0.6,0.3,1,1,0.9c0.4,1.7,0.2,3.5,0.1,5.3
		c-0.1,0.6-0.4,1.1-1,1.4c-0.8-3.1-1.8-6.2-3.2-9.2c-2.4-5.3-5.2-10.3-8.7-14.9c-2.8-3.6-5.8-7-9.5-9.7c-0.7-0.5-1.4-0.8-2.3-0.8
		c0.8-0.9,0.4-1.9,0.2-2.7C7.9,87.6,8,85.8,8,84.1c0-1.2,0.5-1.4,1.4-0.8c0.9,0.6,1.8,1.3,2.6,1.9C12.5,85.6,12.9,85.9,13,85z"/>
	<path class="st18" d="M52.7,32.4c0-3.4,0-6.9-0.1-10.3c-0.1-2.7-0.6-5.4-1.5-8c-0.5-1.5-1-1-1.8-0.3c-1.6,1.6-2.7,3.6-3.5,5.6
		c-0.8,1.9-1.8,3.6-2.4,5.6c-1.4,4.2-2.3,8.6-3.1,13c-0.9,4.9-0.4,9.8-0.7,14.8c-0.4-0.5-0.3-1.1-0.3-1.6c0.1-8-0.2-16.1,1.3-24
		C41.9,20,44,13.2,47.7,7c0.3-0.4,0.6-0.8,0.9-1.2c0.5-0.7,1-1.8,1.9-1.6c0.8,0.2,0.9,1.4,1.1,2.3c0.8,3.1,1.2,6.3,1.3,9.5
		c0.2,5,0.1,10,0.1,15C53,31.5,53.1,32,52.7,32.4z"/>
	<path class="st18" d="M36.7,67.1c0.2-4.2,0.4-8.4,0.3-12.6c-0.2-5.3-1-10.5-2.7-15.6c-0.1-0.4-0.4-0.8-0.6-1.2
		c-0.4-0.7-0.4-1.9-1.3-2c-1-0.1-1.3,1.2-1.6,1.9c-1.7,3.3-2.7,6.8-3.5,10.4c-1.2,4.9-1.2,9.9-1.4,14.8c-0.2,2.9,0.1,5.8,0.5,8.6
		c0.1,0.5,0,1.1,0,1.7c-1.1-2.1-0.8-4.4-0.8-6.5c0-8.4-0.3-16.9,1.3-25.2c0.9-4.7,1.9-9.4,4.5-13.5c0.3-0.5,0.6-1.3,1.3-1.2
		c0.4,0.1,0.7,0.8,0.9,1.3c2,4.4,2.8,9,3.4,13.8c0.9,7.3,0.5,14.6,0.5,21.9C37.3,64.8,37.2,66,36.7,67.1z"/>
	<path class="st25" d="M28.3,86.4c-0.8-1.1-0.6-2.5-0.9-3.7C28.4,83.8,28.2,85.1,28.3,86.4z"/>
	<path class="st25" d="M27.3,81.7C26.5,81,26.6,80,26.4,79c0.6,0.2,0.4,1,1,1.3c0,0,0,0,0,0C27.4,80.8,27.4,81.2,27.3,81.7z"/>
	<path class="st0" d="M31.7,126.7c0.8-1.4,0.6-2.9,0.6-4.5c0-0.8-0.1-1.5,0.3-2.2c2.4-1.1,4.1-3,5.7-5c0.6,0.5,0.4,1.1,0.4,1.7
		c0,2.7,0,5.4,0,8c-0.4,7.5,0.4,14.8,2,22.1c0.5,2.2,1.3,4.3,1.9,6.5c-1.4,0.5-2-1-3.1-1.3c-0.5-0.1-1-0.7-1.6-0.8
		c-1.1-2.1-2.3-4.1-3.7-6c1-0.6,2,0.2,3,0.1c1.2-0.1,1.4-0.4,1.1-1.5c-1-3-2.5-5.6-4.6-8c-0.5-0.6-1.1-1.3-1.6-1.9c0-1,0-2,0-3
		c-0.2-1.3-0.2-2.7-0.6-4C31.7,126.9,31.7,126.8,31.7,126.7z"/>
	<path class="st0" d="M226.3,126.1c0-2.9,0-5.8,0-8.6c0-0.6-0.3-1.2,0.3-1.7c1.8,1.9,3.3,4.1,6,5c0,1.6,0.1,3.1,0.1,4.7
		c0,0.6-0.1,1.2,0.6,1.6c0,0.2,0,0.4,0,0.6c-0.3,1.2-0.4,2.5-0.6,3.7c0,1.2,0,2.4-0.1,3.6c-2.7,2.6-4.7,5.6-5.9,9.2
		c-0.7,2.1-0.4,2.3,1.7,2c0.6-0.1,1.5-0.8,1.9,0.5c-1.5,1.7-2.3,3.9-3.7,5.7c-1.2,0.2-2.1,1-3.1,1.6c-0.4,0.2-0.8,0.7-1.2,0.1
		c2.1-5.9,3.1-12.1,3.8-18.3C226.5,132.5,226.3,129.3,226.3,126.1z"/>
	<path class="st26" d="M166.7,205.1c-2.1-0.2-4.4,0.4-6.3-1c1.5-0.7,2.5-2.2,3.9-3.1c2,1.2,4.4,1.6,6.3,3
		C169.4,204.4,168,204.7,166.7,205.1z"/>
	<path class="st23" d="M104,203c-0.1,0.3,1.1,0.9-0.1,0.9c-2.2,0.1-4.4,0.9-6.6,0.1c-0.5-0.1-1.1-0.3-1.6-0.4
		c-0.9-0.5-1.2-0.9,0.1-1.3c1.3-0.4,2.6-0.9,3.8-1.5c0.6-0.3,1.1-0.3,1.7-0.1C102.2,201.5,103.1,202.3,104,203z"/>
	<path class="st27" d="M145.3,212.9c0.5,0.2,1.2,0.2,0.7,1c-0.9,0.1-1.8,0.1-2.6,0.4c-0.2,0.1-0.6,0.3-0.7-0.1
		c-0.1-0.3,0.1-0.6,0.4-0.7C143.8,213.3,144.5,212.9,145.3,212.9z"/>
	<path class="st28" d="M118.7,213c0.2-1.1,1.1-0.4,1.7-0.7c0.7,0.1,1.4,0.3,1.8,1.1C120.9,213.7,119.8,213.1,118.7,213z"/>
	<path class="st29" d="M193,189.7c1.5,0.1,3.1-0.4,4.3,0.9c-1.9,0.8-3.6,1.9-5.3,3.1c-0.8-0.2-1.8,0.6-2.3-0.6
		C190.8,191.9,191.9,190.8,193,189.7z"/>
	<path class="st30" d="M204.4,178.8c-1,0.3-2,0.9-3,1.1c-0.6,0.1-0.6-0.2-0.7-0.5c0.5-0.5,0.5-1.4,1.3-1.7c1,0.3,2.1-0.4,3,0.4
		C204.8,178.3,204.6,178.5,204.4,178.8z"/>
	<path class="st31" d="M67.7,189.7c1.1-1.2,2.7-0.4,4-1c1.1,1.1,2.2,2.2,3.3,3.4c0,1.2-1.1,0.8-1.7,1
		C71.5,191.9,69.6,190.8,67.7,189.7z"/>
	<path class="st32" d="M64,178c-0.2,0.4,0.5,0.8,0.1,1.2c-0.4,0.3-0.8-0.1-1.2-0.3c-0.6-0.2-1.3-0.4-2-0.5c-0.4-0.5-0.9-0.9-1.3-1.4
		c1.6-0.8,2.9-0.1,4.2,0.7C64,177.8,64,177.9,64,178z"/>
	<path class="st14" d="M232.7,131.4c-0.1-1.3-0.1-2.6,0.6-3.7C233.5,129,233,130.2,232.7,131.4z"/>
	<path class="st14" d="M31.7,127c0.7,1.3,0.7,2.6,0.6,4C32,129.7,31.5,128.4,31.7,127z"/>
</g>
</svg>
